<mxfile host="app.diagrams.net" modified="2024-02-29T13:57:54.390Z" agent="Mozilla/5.0 (Windows NT 10.0; Win64; x64) AppleWebKit/537.36 (KHTML, like Gecko) Chrome/122.0.0.0 Safari/537.36" etag="NICg712eKg1TaeCzsgQD" version="23.1.7" type="github">
  <diagram name="PÃ¡gina-1" id="3DiID6_G2-fBv08gqnjT">
    <mxGraphModel dx="1028" dy="551" grid="1" gridSize="10" guides="1" tooltips="1" connect="1" arrows="1" fold="1" page="1" pageScale="1" pageWidth="827" pageHeight="1169" math="0" shadow="0">
      <root>
        <mxCell id="0" />
        <mxCell id="1" parent="0" />
        <mxCell id="RPrh5PG5baBvvlCAuzxn-27" value="&lt;p style=&quot;margin:0px;margin-top:4px;text-align:center;&quot;&gt;&lt;b&gt;Validacion&lt;/b&gt;&lt;/p&gt;&lt;p style=&quot;margin:0px;margin-left:4px;&quot;&gt;&lt;br&gt;&lt;/p&gt;&lt;p style=&quot;margin:0px;margin-left:4px;&quot;&gt;- bool: boolean&lt;br&gt;&lt;/p&gt;&lt;p style=&quot;margin:0px;margin-left:4px;&quot;&gt;- res: String&lt;br&gt;&lt;/p&gt;&lt;p style=&quot;margin:0px;margin-left:4px;&quot;&gt;- probCasa: int&lt;/p&gt;&lt;p style=&quot;margin:0px;margin-left:4px;&quot;&gt;&lt;br&gt;&lt;/p&gt;&lt;p style=&quot;margin:0px;margin-left:4px;&quot;&gt;+&amp;nbsp;option(String): bool&lt;/p&gt;&lt;p style=&quot;margin:0px;margin-left:4px;&quot;&gt;+&amp;nbsp;getBol(): bool&lt;/p&gt;&lt;p style=&quot;margin:0px;margin-left:4px;&quot;&gt;+ getProbCasa(): int&lt;/p&gt;&lt;p style=&quot;margin:0px;margin-left:4px;&quot;&gt;+ setProbCasa(): void&lt;/p&gt;&lt;p style=&quot;margin:0px;margin-left:4px;&quot;&gt;+&amp;nbsp;getEleccion(): String&lt;/p&gt;&lt;p style=&quot;margin:0px;margin-left:4px;&quot;&gt;+ setEleccion(String): void&lt;/p&gt;" style="verticalAlign=top;align=left;overflow=fill;html=1;whiteSpace=wrap;" parent="1" vertex="1">
          <mxGeometry x="660" y="210" width="167" height="200" as="geometry" />
        </mxCell>
        <mxCell id="RPrh5PG5baBvvlCAuzxn-28" value="&lt;p style=&quot;margin:0px;margin-top:4px;text-align:center;&quot;&gt;&lt;b&gt;PuntajeRespuesta&lt;/b&gt;&lt;br&gt;&lt;/p&gt;&lt;hr size=&quot;1&quot;&gt;&lt;p style=&quot;margin:0px;margin-left:4px;&quot;&gt;- sc: Scanner&lt;/p&gt;&lt;hr size=&quot;1&quot;&gt;&lt;p style=&quot;margin:0px;margin-left:4px;&quot;&gt;&lt;span style=&quot;background-color: initial;&quot;&gt;+&amp;nbsp;&lt;/span&gt;obtRespuesta&lt;span style=&quot;background-color: initial;&quot;&gt;(): void&lt;/span&gt;&lt;/p&gt;" style="verticalAlign=top;align=left;overflow=fill;html=1;whiteSpace=wrap;" parent="1" vertex="1">
          <mxGeometry x="400" y="440" width="200" height="80" as="geometry" />
        </mxCell>
        <mxCell id="RPrh5PG5baBvvlCAuzxn-40" value="&lt;p style=&quot;margin:0px;margin-top:4px;text-align:center;&quot;&gt;&lt;b&gt;Resultado&lt;/b&gt;&lt;/p&gt;&lt;hr size=&quot;1&quot;&gt;&lt;p style=&quot;margin:0px;margin-left:4px;&quot;&gt;&lt;br&gt;&lt;/p&gt;&lt;hr size=&quot;1&quot;&gt;&lt;p style=&quot;margin:0px;margin-left:4px;&quot;&gt;+&amp;nbsp;calculoResultado&lt;span style=&quot;background-color: initial;&quot;&gt;(int i): void&lt;/span&gt;&lt;/p&gt;" style="verticalAlign=top;align=left;overflow=fill;html=1;whiteSpace=wrap;strokeColor=default;fillColor=default;strokeWidth=1;" parent="1" vertex="1">
          <mxGeometry x="890" y="440" width="200" height="80" as="geometry" />
        </mxCell>
        <mxCell id="enj8yPA8fSVjl53y-Jg2-4" value="Use" style="endArrow=open;endSize=12;dashed=1;html=1;rounded=0;exitX=0.019;exitY=0.068;exitDx=0;exitDy=0;entryX=0.5;entryY=1;entryDx=0;entryDy=0;exitPerimeter=0;" parent="1" source="enj8yPA8fSVjl53y-Jg2-9" target="RPrh5PG5baBvvlCAuzxn-28" edge="1">
          <mxGeometry width="160" relative="1" as="geometry">
            <mxPoint x="667" y="604" as="sourcePoint" />
            <mxPoint x="560" y="650" as="targetPoint" />
            <Array as="points">
              <mxPoint x="500" y="600" />
            </Array>
          </mxGeometry>
        </mxCell>
        <mxCell id="enj8yPA8fSVjl53y-Jg2-5" value="Use" style="endArrow=open;endSize=12;dashed=1;html=1;rounded=0;entryX=0.5;entryY=1;entryDx=0;entryDy=0;exitX=1;exitY=0.136;exitDx=0;exitDy=0;exitPerimeter=0;" parent="1" source="enj8yPA8fSVjl53y-Jg2-9" target="RPrh5PG5baBvvlCAuzxn-40" edge="1">
          <mxGeometry width="160" relative="1" as="geometry">
            <mxPoint x="807" y="604" as="sourcePoint" />
            <mxPoint x="510" y="540" as="targetPoint" />
            <Array as="points">
              <mxPoint x="990" y="600" />
            </Array>
          </mxGeometry>
        </mxCell>
        <mxCell id="enj8yPA8fSVjl53y-Jg2-7" value="Extends" style="endArrow=block;endSize=16;endFill=0;html=1;rounded=0;entryX=0;entryY=0.5;entryDx=0;entryDy=0;exitX=0.5;exitY=0;exitDx=0;exitDy=0;" parent="1" source="RPrh5PG5baBvvlCAuzxn-28" target="RPrh5PG5baBvvlCAuzxn-27" edge="1">
          <mxGeometry width="160" relative="1" as="geometry">
            <mxPoint x="400" y="400" as="sourcePoint" />
            <mxPoint x="560" y="400" as="targetPoint" />
            <Array as="points">
              <mxPoint x="500" y="315" />
            </Array>
          </mxGeometry>
        </mxCell>
        <mxCell id="enj8yPA8fSVjl53y-Jg2-8" value="Main" style="swimlane;fontStyle=1;align=center;verticalAlign=top;childLayout=stackLayout;horizontal=1;startSize=26;horizontalStack=0;resizeParent=1;resizeParentMax=0;resizeLast=0;collapsible=1;marginBottom=0;whiteSpace=wrap;html=1;" parent="1" vertex="1">
          <mxGeometry x="630" y="570" width="210" height="104" as="geometry" />
        </mxCell>
        <mxCell id="enj8yPA8fSVjl53y-Jg2-9" value="new respuesta: PuntajeRespuestas&lt;span style=&quot;background-color: initial;&quot;&gt;&lt;br&gt;&lt;/span&gt;new resultado: Resultado" style="text;strokeColor=none;fillColor=none;align=left;verticalAlign=top;spacingLeft=4;spacingRight=4;overflow=hidden;rotatable=0;points=[[0,0.5],[1,0.5]];portConstraint=eastwest;whiteSpace=wrap;html=1;" parent="enj8yPA8fSVjl53y-Jg2-8" vertex="1">
          <mxGeometry y="26" width="210" height="44" as="geometry" />
        </mxCell>
        <mxCell id="enj8yPA8fSVjl53y-Jg2-10" value="" style="line;strokeWidth=1;fillColor=none;align=left;verticalAlign=middle;spacingTop=-1;spacingLeft=3;spacingRight=3;rotatable=0;labelPosition=right;points=[];portConstraint=eastwest;strokeColor=inherit;" parent="enj8yPA8fSVjl53y-Jg2-8" vertex="1">
          <mxGeometry y="70" width="210" height="8" as="geometry" />
        </mxCell>
        <mxCell id="enj8yPA8fSVjl53y-Jg2-11" value="+ main(): void" style="text;strokeColor=none;fillColor=none;align=left;verticalAlign=top;spacingLeft=4;spacingRight=4;overflow=hidden;rotatable=0;points=[[0,0.5],[1,0.5]];portConstraint=eastwest;whiteSpace=wrap;html=1;" parent="enj8yPA8fSVjl53y-Jg2-8" vertex="1">
          <mxGeometry y="78" width="210" height="26" as="geometry" />
        </mxCell>
        <mxCell id="vBn4FUi_6JbVleAse_Y1-1" value="Preguntas_Respuestas" style="swimlane;fontStyle=1;align=center;verticalAlign=top;childLayout=stackLayout;horizontal=1;startSize=26;horizontalStack=0;resizeParent=1;resizeParentMax=0;resizeLast=0;collapsible=1;marginBottom=0;whiteSpace=wrap;html=1;" vertex="1" parent="1">
          <mxGeometry x="140" y="290" width="160" height="150" as="geometry" />
        </mxCell>
        <mxCell id="vBn4FUi_6JbVleAse_Y1-2" value="- pregunta: String&lt;br&gt;- respuesta1: String&lt;br&gt;- respuesta2: String&lt;br&gt;- respuesta3: String&lt;br&gt;- respuesta4: String&lt;br&gt;&lt;div&gt;&lt;br&gt;&lt;/div&gt;" style="text;strokeColor=none;fillColor=none;align=left;verticalAlign=top;spacingLeft=4;spacingRight=4;overflow=hidden;rotatable=0;points=[[0,0.5],[1,0.5]];portConstraint=eastwest;whiteSpace=wrap;html=1;" vertex="1" parent="vBn4FUi_6JbVleAse_Y1-1">
          <mxGeometry y="26" width="160" height="84" as="geometry" />
        </mxCell>
        <mxCell id="vBn4FUi_6JbVleAse_Y1-3" value="" style="line;strokeWidth=1;fillColor=none;align=left;verticalAlign=middle;spacingTop=-1;spacingLeft=3;spacingRight=3;rotatable=0;labelPosition=right;points=[];portConstraint=eastwest;strokeColor=inherit;" vertex="1" parent="vBn4FUi_6JbVleAse_Y1-1">
          <mxGeometry y="110" width="160" height="8" as="geometry" />
        </mxCell>
        <mxCell id="vBn4FUi_6JbVleAse_Y1-4" value="+ getPreguntas(): void" style="text;strokeColor=none;fillColor=none;align=left;verticalAlign=top;spacingLeft=4;spacingRight=4;overflow=hidden;rotatable=0;points=[[0,0.5],[1,0.5]];portConstraint=eastwest;whiteSpace=wrap;html=1;" vertex="1" parent="vBn4FUi_6JbVleAse_Y1-1">
          <mxGeometry y="118" width="160" height="32" as="geometry" />
        </mxCell>
        <mxCell id="vBn4FUi_6JbVleAse_Y1-5" value="Use" style="endArrow=open;endSize=12;dashed=1;html=1;rounded=0;exitX=0;exitY=0.5;exitDx=0;exitDy=0;entryX=0.481;entryY=0.969;entryDx=0;entryDy=0;entryPerimeter=0;" edge="1" parent="1" source="RPrh5PG5baBvvlCAuzxn-28" target="vBn4FUi_6JbVleAse_Y1-4">
          <mxGeometry width="160" relative="1" as="geometry">
            <mxPoint x="390" y="430" as="sourcePoint" />
            <mxPoint x="550" y="430" as="targetPoint" />
            <Array as="points">
              <mxPoint x="217" y="480" />
            </Array>
          </mxGeometry>
        </mxCell>
      </root>
    </mxGraphModel>
  </diagram>
</mxfile>
